<svg xmlns="http://www.w3.org/2000/svg" viewBox="0 0 24 24"><defs><linearGradient id="blue-gradient" x1="0%" y1="0%" x2="100%" y2="100%"><stop offset="0%" stop-color="#60a5fa"/><stop offset="100%" stop-color="#2563eb"/></linearGradient></defs><rect width="24" height="24" rx="6" fill="#ffffff"/><g transform="translate(3.6, 3.6) scale(0.7)"><path fill="url(#blue-gradient)" d="M8 5H11V19H8V21H16V19H13V5H16V3H8V5ZM2 7C1.44772 7 1 7.44772 1 8V16C1 16.5523 1.44772 17 2 17H8V15H3V9H8V7H2ZM16 9H21V15H16V17H22C22.5523 17 23 16.5523 23 16V8C23 7.44772 22.5523 7 22 7H16V9Z"></path></g></svg>